<?xml version="1.0" encoding="utf-8"?>
<!-- Generator: Adobe Illustrator 16.0.0, SVG Export Plug-In . SVG Version: 6.00 Build 0)  -->
<!DOCTYPE svg PUBLIC "-//W3C//DTD SVG 1.1//EN" "http://www.w3.org/Graphics/SVG/1.1/DTD/svg11.dtd">
<svg version="1.1" id="Layer_1" xmlns="http://www.w3.org/2000/svg" xmlns:xlink="http://www.w3.org/1999/xlink" x="0px" y="0px"
	 width="50px" height="150px" viewBox="0 0 50 150" enable-background="new 0 0 50 150" xml:space="preserve">
<path fill="#555655" d="M25,2.5C12.573,2.5,2.5,12.573,2.5,25S12.573,47.5,25,47.5S47.5,37.427,47.5,25S37.427,2.5,25,2.5z
	 M35.768,26.807L22.345,36.04c-0.374,0.255-0.808,0.386-1.244,0.386c-0.351,0-0.699-0.083-1.02-0.251
	c-0.721-0.381-1.173-1.128-1.173-1.941V15.767c0-0.813,0.453-1.561,1.173-1.942c0.721-0.378,1.591-0.326,2.263,0.136l13.422,9.232
	c0.594,0.409,0.948,1.085,0.948,1.807S36.359,26.397,35.768,26.807z"/>
<g>
	<g>
		<path fill="#595A5C" stroke="#595A5C" stroke-width="0.3856" stroke-miterlimit="10" d="M12.398,60.939
			c0,0-1.115-0.458-0.951-1.742c0.167-1.282,1.093-1.355,1.093-1.355l9.971,1.546v-1.545c0,0,0.116-1.707,1.234-1.59
			c1.115,0.116,4.107,0.664,4.107,0.664s0.619,0.238,0.74,1.021c0.117,0.784-0.571,2.447-0.571,2.447l9.568,1.663
			c0,0,1.163,0.474,0.953,1.807c-0.217,1.329-1.571,1.282-1.571,1.282L12.398,60.939z"/>
		<path fill="#595A5C" stroke="#595A5C" stroke-width="0.3856" stroke-miterlimit="10" d="M38.029,73.041
			c0.228-2.027,0.374-3.518,0.363-3.931c-0.066-1.743-1.839-1.835-1.839-1.835h-8.135h-6.047h-8.138c0,0-1.773,0.094-1.835,1.835
			c-0.017,0.413,0.13,1.903,0.36,3.931l-0.362,0.219c0,0,2.249,17.445,2.659,18.9c0.413,1.452,1.456,1.521,1.456,1.521
			s0.176,0.002,0.48,0.003c0.881,0.07,4.62,0.075,8.401,0.059c3.783,0.017,7.526,0.012,8.405-0.059
			c0.3-0.001,0.472-0.003,0.472-0.003s1.048-0.062,1.462-1.521c0.406-1.455,2.658-18.9,2.658-18.9L38.029,73.041z M20.168,89.96
			c-1.414,0.185-1.637-1.196-1.637-1.196s-1.966-15.932-1.893-16.274c0.069-0.343,0.281-1.263,1.365-1.42
			c1.08-0.158,1.639,1.069,1.639,1.069s1.816,16.444,1.807,16.492C21.438,88.68,21.582,89.78,20.168,89.96z M26.611,88.615
			c0,0-0.061,1.393-1.488,1.377c-1.423-0.018-1.408-1.124-1.423-1.173c-0.017-0.046-0.112-16.589-0.112-16.589
			s0.41-1.286,1.503-1.252c1.091,0.034,1.408,0.915,1.52,1.252C26.725,72.564,26.611,88.615,26.611,88.615z M32.26,88.764
			c0,0-0.223,1.377-1.637,1.196c-1.413-0.18-1.272-1.28-1.279-1.326c-0.012-0.048,1.805-16.493,1.805-16.493
			s0.561-1.222,1.641-1.069c1.08,0.162,1.291,1.077,1.366,1.422S32.26,88.764,32.26,88.764z"/>
	</g>
	<rect x="2.5" y="52.5" fill="none" width="45" height="45"/>
</g>
</svg>
